<svg width="187" height="155" viewBox="0 0 187 155" fill="none" xmlns="http://www.w3.org/2000/svg">
<rect width="155" height="155" rx="30" fill="#1B1B1D"/>
<rect width="155" height="155" rx="30" fill="#1B1B1D"/>
<path d="M24.172 65.416C22.948 65.416 22 65.176 21.328 64.696C20.68 64.216 20.428 63.436 20.572 62.356C20.74 61.108 21.172 60.232 21.868 59.728C22.564 59.224 23.572 58.972 24.892 58.972C26.14 58.972 27.088 59.224 27.736 59.728C28.408 60.208 28.672 60.952 28.528 61.96C28.36 63.304 27.916 64.216 27.196 64.696C26.476 65.176 25.468 65.416 24.172 65.416ZM27.088 67L22.912 85H15.64L19.816 67H27.088ZM25.6778 85L29.8538 67H36.2978L35.2898 73.336L35.0018 72.724C35.5058 70.78 36.3818 69.28 37.6298 68.224C38.9018 67.168 40.4258 66.64 42.2018 66.64C43.4498 66.64 44.4938 66.916 45.3338 67.468C46.1738 68.02 46.7498 68.8 47.0618 69.808C47.3978 70.816 47.3978 72.028 47.0618 73.444L44.3618 85H37.0898L39.5738 74.488C39.7418 73.744 39.6818 73.156 39.3938 72.724C39.1058 72.292 38.6498 72.076 38.0258 72.076C37.5458 72.076 37.1138 72.196 36.7298 72.436C36.3698 72.676 36.0578 73.024 35.7938 73.48C35.5538 73.936 35.3498 74.512 35.1818 75.208L32.9498 85H25.6778ZM48.5738 85L51.0218 74.488C51.1898 73.744 51.1298 73.156 50.8418 72.724C50.5778 72.292 50.1338 72.076 49.5098 72.076C49.0298 72.076 48.5978 72.196 48.2138 72.436C47.8538 72.676 47.5418 73.024 47.2778 73.48C47.0138 73.936 46.8098 74.512 46.6658 75.208L46.3058 72.904C46.8338 70.888 47.7338 69.34 49.0058 68.26C50.2778 67.18 51.7898 66.64 53.5418 66.64C54.8138 66.64 55.8818 66.916 56.7458 67.468C57.6098 68.02 58.1978 68.8 58.5098 69.808C58.8458 70.816 58.8578 72.028 58.5458 73.444L55.8458 85H48.5738ZM65.5897 85.36C64.4857 85.36 63.4777 85.096 62.5657 84.568C61.6537 84.04 60.9337 83.26 60.4057 82.228C59.8777 81.196 59.6137 79.912 59.6137 78.376C59.6137 76.936 59.8177 75.52 60.2257 74.128C60.6337 72.736 61.2097 71.476 61.9537 70.348C62.7217 69.22 63.6457 68.32 64.7257 67.648C65.8057 66.976 67.0417 66.64 68.4337 66.64C69.1297 66.64 69.8137 66.772 70.4857 67.036C71.1817 67.3 71.7817 67.72 72.2857 68.296C72.8137 68.872 73.1617 69.664 73.3297 70.672L74.1937 67H81.4657L77.2897 85H70.6657L71.2777 81.58C70.6777 82.756 69.8857 83.68 68.9017 84.352C67.9177 85.024 66.8137 85.36 65.5897 85.36ZM68.9737 80.14C69.4777 80.14 69.9337 79.96 70.3417 79.6C70.7497 79.24 71.0977 78.772 71.3857 78.196C71.6977 77.596 71.9257 76.96 72.0697 76.288C72.2377 75.616 72.3217 74.98 72.3217 74.38C72.3217 73.852 72.2377 73.408 72.0697 73.048C71.9017 72.664 71.6617 72.376 71.3497 72.184C71.0617 71.968 70.7017 71.86 70.2697 71.86C69.6937 71.86 69.1897 72.052 68.7577 72.436C68.3257 72.82 67.9657 73.3 67.6777 73.876C67.3897 74.452 67.1737 75.064 67.0297 75.712C66.8857 76.36 66.8137 76.936 66.8137 77.44C66.8137 77.992 66.8857 78.472 67.0297 78.88C67.1977 79.288 67.4377 79.6 67.7497 79.816C68.0617 80.032 68.4697 80.14 68.9737 80.14ZM87.8796 92.74C86.7756 92.74 85.7076 92.608 84.6756 92.344C83.6676 92.08 82.7556 91.66 81.9396 91.084C81.1236 90.532 80.4996 89.824 80.0676 88.96C79.6116 88.096 79.3956 87.076 79.4196 85.9L86.6916 85.36C86.6676 86.248 86.7876 86.956 87.0516 87.484C87.3156 88.012 87.8916 88.276 88.7796 88.276C89.2596 88.276 89.6796 88.144 90.0396 87.88C90.4236 87.64 90.7596 87.256 91.0476 86.728C91.3356 86.224 91.5756 85.528 91.7676 84.64L93.2436 78.268L93.4956 78.448C93.1356 80.416 92.4276 81.928 91.3716 82.984C90.3156 84.016 88.9596 84.532 87.3036 84.532C86.1756 84.532 85.1556 84.268 84.2436 83.74C83.3556 83.212 82.6476 82.444 82.1196 81.436C81.5916 80.404 81.3276 79.144 81.3276 77.656C81.3276 76.264 81.5196 74.908 81.9036 73.588C82.3116 72.268 82.8876 71.092 83.6316 70.06C84.3996 69.004 85.3116 68.176 86.3676 67.576C87.4476 66.952 88.6596 66.64 90.0036 66.64C90.8436 66.64 91.6476 66.832 92.4156 67.216C93.1836 67.6 93.8076 68.224 94.2876 69.088C94.7916 69.928 95.0196 71.032 94.9716 72.4L94.2156 73.516L95.6916 67H102.964L99.0756 83.812C98.5716 86.068 97.8276 87.844 96.8436 89.14C95.8596 90.436 94.6236 91.36 93.1356 91.912C91.6716 92.464 89.9196 92.74 87.8796 92.74ZM90.6876 79.384C91.3596 79.384 91.9236 79.132 92.3796 78.628C92.8596 78.1 93.2196 77.452 93.4596 76.684C93.7236 75.916 93.8556 75.136 93.8556 74.344C93.8556 73.84 93.7716 73.408 93.6036 73.048C93.4356 72.664 93.1956 72.376 92.8836 72.184C92.5716 71.968 92.1996 71.86 91.7676 71.86C91.0236 71.86 90.4116 72.136 89.9316 72.688C89.4516 73.216 89.0916 73.864 88.8516 74.632C88.6116 75.376 88.4916 76.072 88.4916 76.72C88.4916 77.512 88.6596 78.16 88.9956 78.664C89.3556 79.144 89.9196 79.384 90.6876 79.384ZM112.078 85.324C110.278 85.324 108.67 85 107.254 84.352C105.862 83.68 104.77 82.732 103.978 81.508C103.21 80.26 102.826 78.808 102.826 77.152C102.826 75.064 103.246 73.24 104.086 71.68C104.95 70.096 106.162 68.86 107.722 67.972C109.282 67.084 111.118 66.64 113.23 66.64C115.102 66.64 116.686 66.976 117.982 67.648C119.278 68.32 120.262 69.256 120.934 70.456C121.63 71.656 121.978 73.06 121.978 74.668C121.978 75.148 121.954 75.64 121.906 76.144C121.858 76.624 121.762 77.104 121.618 77.584H107.686L107.65 74.416H116.722L114.85 75.244C114.97 74.932 115.03 74.668 115.03 74.452C115.054 74.212 115.066 73.984 115.066 73.768C115.066 73.24 114.982 72.82 114.814 72.508C114.646 72.172 114.406 71.932 114.094 71.788C113.806 71.62 113.47 71.536 113.086 71.536C112.366 71.536 111.766 71.728 111.286 72.112C110.806 72.496 110.434 73 110.17 73.624C109.906 74.224 109.726 74.884 109.63 75.604C109.534 76.3 109.486 76.96 109.486 77.584C109.486 78.232 109.606 78.772 109.846 79.204C110.086 79.636 110.422 79.96 110.854 80.176C111.286 80.368 111.778 80.464 112.33 80.464C113.05 80.464 113.626 80.284 114.058 79.924C114.49 79.564 114.814 79.132 115.03 78.628L121.078 80.716C120.694 81.7 120.058 82.54 119.17 83.236C118.282 83.908 117.226 84.424 116.002 84.784C114.802 85.144 113.494 85.324 112.078 85.324ZM131.373 85.36C130.101 85.36 128.841 85.192 127.593 84.856C126.345 84.52 125.193 84.04 124.137 83.416C123.081 82.792 122.217 82.024 121.545 81.112L124.893 77.728C125.565 78.592 126.417 79.312 127.449 79.888C128.481 80.464 129.489 80.752 130.473 80.752C131.049 80.752 131.481 80.68 131.769 80.536C132.081 80.368 132.237 80.128 132.237 79.816C132.237 79.576 132.141 79.36 131.949 79.168C131.781 78.976 131.481 78.832 131.049 78.736L129.249 78.124C127.329 77.524 125.973 76.804 125.181 75.964C124.389 75.1 123.993 74.008 123.993 72.688C123.993 71.392 124.341 70.3 125.037 69.412C125.733 68.5 126.693 67.816 127.917 67.36C129.141 66.88 130.545 66.64 132.129 66.64C134.049 66.64 135.753 66.952 137.241 67.576C138.753 68.2 139.977 69.04 140.913 70.096L137.781 73.66C137.421 73.204 136.953 72.796 136.377 72.436C135.825 72.076 135.213 71.788 134.541 71.572C133.869 71.356 133.197 71.248 132.525 71.248C131.997 71.248 131.601 71.332 131.337 71.5C131.097 71.644 130.977 71.86 130.977 72.148C130.977 72.412 131.085 72.628 131.301 72.796C131.541 72.94 131.841 73.06 132.201 73.156L135.513 74.236C136.809 74.62 137.805 75.22 138.501 76.036C139.197 76.852 139.545 77.848 139.545 79.024C139.545 80.32 139.221 81.448 138.573 82.408C137.925 83.344 136.989 84.076 135.765 84.604C134.565 85.108 133.101 85.36 131.373 85.36Z" fill="#FFFBFB"/>
<rect width="155" height="155" rx="30" fill="#1B1B1D"/>
<rect width="155" height="155" rx="30" fill="#7649FC"/>
<path d="M33.68 83.88H46.52L45.08 90H24.08L30.2 63.6H38.4L33.68 83.88ZM47.8228 98.6C46.6228 98.6 45.5028 98.4667 44.4628 98.2C43.4228 97.9333 42.6095 97.6 42.0228 97.2L44.1028 91.68C45.0361 92.4533 46.2228 92.84 47.6628 92.84C48.3561 92.84 48.9695 92.72 49.5028 92.48C50.0628 92.24 50.5028 91.8667 50.8228 91.36L51.2628 90.64L47.7428 70H55.9428L56.1028 80.52L56.0628 85.36L58.1028 80.56L62.7828 70H71.2628L59.2228 90.88C58.1561 92.7467 57.0628 94.24 55.9428 95.36C54.8495 96.5067 53.6495 97.3333 52.3428 97.84C51.0361 98.3467 49.5295 98.6 47.8228 98.6ZM75.7403 90.4C74.5136 90.4 73.3936 90.1067 72.3803 89.52C71.367 88.9333 70.567 88.0667 69.9803 86.92C69.3936 85.7733 69.1003 84.3467 69.1003 82.64C69.1003 81.04 69.327 79.4667 69.7803 77.92C70.2336 76.3733 70.8736 74.9733 71.7003 73.72C72.5536 72.4667 73.5803 71.4667 74.7803 70.72C75.9803 69.9733 77.3536 69.6 78.9003 69.6C79.6736 69.6 80.4336 69.7467 81.1803 70.04C81.9536 70.3333 82.6203 70.8 83.1803 71.44C83.767 72.08 84.1536 72.96 84.3403 74.08L87.1803 61.76H95.2603L88.7403 90H81.3803L82.0603 86.2C81.3936 87.5067 80.5136 88.5333 79.4203 89.28C78.327 90.0267 77.1003 90.4 75.7403 90.4ZM79.5003 84.6C80.0603 84.6 80.567 84.4 81.0203 84C81.5003 83.6 81.9003 83.08 82.2203 82.44C82.5403 81.7733 82.7803 81.0667 82.9403 80.32C83.127 79.5733 83.2203 78.8667 83.2203 78.2C83.2203 77.6133 83.127 77.12 82.9403 76.72C82.7536 76.2933 82.487 75.9733 82.1403 75.76C81.8203 75.52 81.4203 75.4 80.9403 75.4C80.3003 75.4 79.7403 75.6133 79.2603 76.04C78.7803 76.4667 78.3803 77 78.0603 77.64C77.7403 78.28 77.5003 78.96 77.3403 79.68C77.1803 80.4 77.1003 81.04 77.1003 81.6C77.1003 82.2133 77.1803 82.7467 77.3403 83.2C77.527 83.6533 77.7936 84 78.1403 84.24C78.487 84.48 78.9403 84.6 79.5003 84.6ZM101.227 68.24C99.8669 68.24 98.8135 67.9733 98.0669 67.44C97.3469 66.9067 97.0669 66.04 97.2269 64.84C97.4135 63.4533 97.8935 62.48 98.6669 61.92C99.4402 61.36 100.56 61.08 102.027 61.08C103.414 61.08 104.467 61.36 105.187 61.92C105.934 62.4533 106.227 63.28 106.067 64.4C105.88 65.8933 105.387 66.9067 104.587 67.44C103.787 67.9733 102.667 68.24 101.227 68.24ZM104.467 70L99.8269 90H91.7469L96.3869 70H104.467ZM110.82 90.4C109.593 90.4 108.473 90.1067 107.46 89.52C106.447 88.9333 105.647 88.0667 105.06 86.92C104.473 85.7733 104.18 84.3467 104.18 82.64C104.18 81.04 104.407 79.4667 104.86 77.92C105.313 76.3733 105.953 74.9733 106.78 73.72C107.633 72.4667 108.66 71.4667 109.86 70.72C111.06 69.9733 112.433 69.6 113.98 69.6C114.753 69.6 115.513 69.7467 116.26 70.04C117.033 70.3333 117.7 70.8 118.26 71.44C118.847 72.08 119.233 72.96 119.42 74.08L120.38 70H128.46L123.82 90H116.46L117.14 86.2C116.473 87.5067 115.593 88.5333 114.5 89.28C113.407 90.0267 112.18 90.4 110.82 90.4ZM114.58 84.6C115.14 84.6 115.647 84.4 116.1 84C116.553 83.6 116.94 83.08 117.26 82.44C117.607 81.7733 117.86 81.0667 118.02 80.32C118.207 79.5733 118.3 78.8667 118.3 78.2C118.3 77.6133 118.207 77.12 118.02 76.72C117.833 76.2933 117.567 75.9733 117.22 75.76C116.9 75.52 116.5 75.4 116.02 75.4C115.38 75.4 114.82 75.6133 114.34 76.04C113.86 76.4667 113.46 77 113.14 77.64C112.82 78.28 112.58 78.96 112.42 79.68C112.26 80.4 112.18 81.04 112.18 81.6C112.18 82.2133 112.26 82.7467 112.42 83.2C112.607 83.6533 112.873 84 113.22 84.24C113.567 84.48 114.02 84.6 114.58 84.6Z" fill="#FFFBFB"/>
</svg>
